PathFileType	4	(X/Y/Z)	64_1_4_p0_0-635_filt_butterworth.trc
DataRate	CameraRate	NumFrames	NumMarkers	Units	OrigDataRate	OrigDataStartFrame	OrigNumFrames
48.0	48.0	7	27	m	48.0	0	635
Frame#	Time	RHip			RKnee			RAnkle			RBigToe			RSmallToe			RHeel			LHip			LKnee			LAnkle			LBigToe			LSmallToe			LHeel			Neck			Head			Nose			RShoulder			RElbow			RWrist			RThumb			RIndex			RPinky			LShoulder			LElbow			LWrist			LThumb			LIndex			LPinky			
		X1	Y1	Z1	X2	Y2	Z2	X3	Y3	Z3	X4	Y4	Z4	X5	Y5	Z5	X6	Y6	Z6	X7	Y7	Z7	X8	Y8	Z8	X9	Y9	Z9	X10	Y10	Z10	X11	Y11	Z11	X12	Y12	Z12	X13	Y13	Z13	X14	Y14	Z14	X15	Y15	Z15	X16	Y16	Z16	X17	Y17	Z17	X18	Y18	Z18	X19	Y19	Z19	X20	Y20	Z20	X21	Y21	Z21	X22	Y22	Z22	X23	Y23	Z23	X24	Y24	Z24	X25	Y25	Z25	X26	Y26	Z26	X27	Y27	Z27	
0	0.0	0.3036832742388256	0.2357053053866528	1.1026906355350283	0.289939279962744	-0.17992868738191892	1.114681526369986	0.22439891555763922	-0.5946717428144529	1.1295739409797434	0.279601796071136	-0.5679733304966681	0.9155907570354186	0.3311415835455057	-0.5729634241865462	0.9692569791746913	0.18774322354830658	-0.6462001904533181	1.1749716928366702	0.11066944975808288	0.21108539002514015	1.0730503355270533	0.09977715256854006	-0.16940772177481994	1.083441730279657	0.08259554294867053	-0.5816533158184134	1.0569911778479728	0.13700894432435032	-0.5576525813539844	0.8811498331279226	0.06007702633138486	-0.5746102167818293	0.9260572367450275	0.0703132920246637	-0.6263448334079187	1.0999659121014373	0.2247345706958563	0.6887379217843497	0.8754097559457403	0.2604663442077539	0.9354075298526073	0.7520087624887442	0.2869362954234004	0.8104338965140647	0.7203418933085156	0.3766049345025582	0.6682506029775628	0.9073772917433824	0.3840375766006072	0.40645226374203863	1.007920579636128	0.3579778868599966	0.18985819217098576	0.9904406081359374	0.2683824875085603	0.09358986376551764	0.9783327564919111	0.26638812604787726	0.08089408455373226	0.9791269121397135	0.28843464185414247	0.03822435238119154	1.042892528823859	0.07921671646791971	0.6011832738907028	0.8542111775972824	0.08705631531322665	0.36245709456684994	0.9171933907251903	0.20088716122412492	0.17471609018431422	0.9421013185767191	0.2871727474648241	0.13327606982082146	0.9538060221643393	0.2847158578447951	0.09032012442826065	0.9683319096688536	0.253583929163526	0.06378642054993383	0.9949469700729425	
1	0.0208333333333333	0.3049949685091522	0.2334588332922376	1.1010090002880586	0.29002312985179346	-0.18617943654318547	1.1177868598460863	0.22441833150066473	-0.5949259330776068	1.1284675674372615	0.27918558515182995	-0.5762230339378891	0.9329756085679645	0.33045522355232504	-0.5749237377504726	0.9733976389109765	0.1880311017254634	-0.643756855230319	1.1708936205836802	0.11035608492931137	0.20721957642029032	1.0771076047766899	0.09867421455285476	-0.17311546117247106	1.0884806658364432	0.08246545221809434	-0.5796869742996444	1.0559306274374338	0.13519757483710054	-0.5673795977471865	0.8903485271993375	0.05856892695897379	-0.5840366181159979	0.9370387468261179	0.07001735925806449	-0.6243217655350369	1.098158429411451	0.22543226534102342	0.6891856469946234	0.8752279907856051	0.26020948274917516	0.9397162281857997	0.7479614969267382	0.2864016527842762	0.8119550816225387	0.7201140645973314	0.37645579050285505	0.6720541193066534	0.9066601681430311	0.38551031876849134	0.4119924281991261	1.0015638124364774	0.357122792380457	0.1933810042691101	0.9920390109129225	0.2710114985916213	0.09398787489652549	0.9722360147744757	0.26845724160853396	0.07929237355311819	0.974133041547373	0.29294581344231035	0.03980433539280903	1.042236728607712	0.07902558484107097	0.6029151425031372	0.8547870224066207	0.08663077436236435	0.3645245628797257	0.9092577663543997	0.20026528278991543	0.17726634502315802	0.9414232533293803	0.28865834828860065	0.12860096025574985	0.9651840997657957	0.28722236170933213	0.09219979536182349	0.975969734578317	0.25965445647515606	0.06467461344431108	0.9909502699403346	
2	0.0416666666666666	0.30616936670156003	0.23231999805463482	1.0994730318216601	0.29038793591789064	-0.19045035298348434	1.1201567944594373	0.22441481002663793	-0.5951285464419676	1.1276704653533547	0.2789204678263582	-0.5820586145242022	0.9437332056642859	0.3302564231423032	-0.5761695017278561	0.9760542767726804	0.18823819970871788	-0.6420315468643554	1.1678279585551201	0.11034311654029037	0.20467451849847484	1.0802875350460264	0.0978343833404092	-0.17583582490218674	1.0924642882011566	0.08236764626736251	-0.5780879934309958	1.0549656839485322	0.1346870001295142	-0.5733001488510661	0.8953536156410451	0.05780408351625778	-0.5891892120781014	0.9429710288942492	0.06980445658649065	-0.6229687194444865	1.0970543578530056	0.22495132534768497	0.6907800216457782	0.8760695060914432	0.2596228761591329	0.9429184894565683	0.7464324212370418	0.28470615782392433	0.8144665319261305	0.7212287623215377	0.3763267945369624	0.6744615994778024	0.9061258701618491	0.38603428485555585	0.41582798806820814	0.9985722058125786	0.35672972708631684	0.19571643466778166	0.9928121895391429	0.27362591464044544	0.09574581281778721	0.9680445506034411	0.2703656606071783	0.07954403737772658	0.9708423880973014	0.295241174205208	0.04291067465369025	1.038863784819776	0.0790690462224683	0.6061580865300884	0.8547802308336712	0.0862539410161306	0.36654326049887004	0.9041719671766355	0.20030770447190233	0.1791293538169076	0.940797185223996	0.2895371130090682	0.12726330252577195	0.9708141727601062	0.28887044573070203	0.09493569683711928	0.9785795751297813	0.2633422151797701	0.0656337865180236	0.9880748930291823	
3	0.0625	0.307214788436215	0.23220140325646482	1.0980654003793215	0.29100320368559046	-0.1929148652552778	1.1218410706513589	0.224402253472209	-0.5952775092579348	1.1271504491216695	0.27877546436158673	-0.5857718349288267	0.9490148322292365	0.33042217796379225	-0.5767961540810762	0.9774223429907329	0.1883746335604753	-0.6409564415120643	1.1656910720679206	0.11059171119969113	0.20335344673756478	1.0826365635727395	0.09723578074679402	-0.17764542835367503	1.095464305053096	0.08229848185526842	-0.5768237974423494	1.0541041407142637	0.13514934721430893	-0.5761564573885893	0.8970782890435023	0.05761350284805507	-0.5909781001778355	0.9449427452925855	0.06966829173200087	-0.622213876124607	1.096585137856229	0.2236238171270589	0.6934570155646911	0.8776622476031097	0.2587969005672805	0.9453491627699414	0.7468995321056012	0.28217774613082264	0.8178528290114715	0.723367796623634	0.37621592080557714	0.675855441667067	0.9057393967864611	0.38583203104140434	0.41838998830459334	0.9982018110037033	0.3567784545550829	0.1972732583870146	0.99261790798373	0.2762398525136552	0.09869065095888668	0.9649481605645269	0.2721676118795805	0.08129844300227823	0.968718963525601	0.29587280406143224	0.04727183480959046	1.0333704281876048	0.07928964131821263	0.6106325319178285	0.8543700069540255	0.08586197074936548	0.36855599357932795	0.9014883143229957	0.2007791434569791	0.18057674639917765	0.9402678600604604	0.28999400495777305	0.12862217571014323	0.9717565004948371	0.28988607003552136	0.09830859367820671	0.9772479636526605	0.2652148802357218	0.06684687256741606	0.9858947083690807	
4	0.0833333333333333	0.30813955333328324	0.2330156524803474	1.0967687762045317	0.2918384386794478	-0.1937464019110286	1.122889428863171	0.22439456417402817	-0.5953707478759089	1.1268753331358514	0.27871959502438176	-0.5876544578249812	0.949971772167672	0.3308294836651441	-0.5768991327725133	0.9776972877960646	0.18845051934314092	-0.6404637153300825	1.1643993264390118	0.11106303551618486	0.20315959161543107	1.0842011275945072	0.09685652858759984	-0.17862088691664352	1.0975524240715606	0.08225431574060546	-0.5758618105635854	1.0533537910676243	0.13625674310420244	-0.5766907460827233	0.8964357379971666	0.05782819179918393	-0.590313383924897	0.94404255836429	0.06960257241665381	-0.621985416563737	1.0966822098512483	0.2217818070903632	0.6971525985782395	0.8797341610604604	0.2578219321032715	0.9473430972309475	0.748840826218363	0.2791443532934489	0.8219985544651925	0.7262129776461201	0.3761211435093963	0.6766180440505053	0.9054657470034924	0.38512611350564047	0.4201094738635907	0.9997086792491228	0.35724873836426213	0.1984602504468233	0.9913139302158154	0.2788674290698727	0.10264936274940806	0.9621366412434537	0.2739173242615106	0.08420495740149442	0.9672267795683737	0.2953927829295798	0.05261628050626538	1.0263533894387529	0.07962991083440493	0.6160589046126299	0.8537355548432761	0.08539101903690913	0.37060556827614377	0.9007591289245783	0.20144431693203912	0.18188015260358326	0.9398800236386671	0.2902139874662615	0.13203665888811866	0.969071342317555	0.29049519475040675	0.10209925070914477	0.9730614324763682	0.26584012660136497	0.06849680438883282	0.9839835849896243	
5	0.1041666666666666	0.30895198101293064	0.23467534930890266	1.0955658295407789	0.2928631464240176	-0.19311839150319926	1.1233516095361935	0.2244056444687456	-0.5954061886462899	1.1268129317895461	0.27872188008160986	-0.5879982458858884	0.9477553093844474	0.33135533589471144	-0.576573875764551	0.9770745614196056	0.18847597311911998	-0.6404855444750474	1.1638690869853243	0.11171825609844283	0.20399618360994454	1.0850276643490067	0.09667474867841726	-0.1788388159808002	1.0988003529358492	0.08223150468216701	-0.575169457024586	1.05272242834161	0.13768131481191265	-0.5756452376564383	0.8943391530924946	0.05827915721446274	-0.5881051648289864	0.9413591304525264	0.0696010063625081	-0.6222115217502155	1.0972770142681918	0.21975736164881637	0.7018027405132992	0.8820131922033507	0.25678834689676	0.9492351419446146	0.7517343002612736	0.2759339149002817	0.8267882898739239	0.7294461155314955	0.3760404368491177	0.6771318048041736	0.905269919799568	0.3841390884278688	0.4214174897005075	1.0023488617881098	0.35812034209136223	0.19968618586721948	0.988758020204531	0.2815227611677211	0.10744892161893282	0.9587997892259422	0.27566902658873943	0.08791294755009343	0.9658298479617223	0.29435319072824834	0.05867247638946771	1.0184093993007752	0.08003239547714634	0.6221576305607636	0.8530560785770154	0.08477724135360189	0.3727347907443604	0.9015367321124818	0.2020679420839763	0.18331120226373726	0.9396784217585114	0.29038202386608053	0.13686583113895107	0.9638189575758275	0.2909237800019756	0.10608843275398966	0.9671065139303197	0.2657856292350539	0.07076651477861606	0.9819153919204098	
6	0.125	0.30966039109532323	0.2370930973247506	1.094439230631552	0.29404683244385477	-0.19120426258425244	1.1232773531117464	0.22444939669301156	-0.5953817579194773	1.1269310594764	0.27870784088854383	-0.5871567618078714	0.9442243148160552	0.3319584213576676	-0.5755177360716079	0.9750706249565261	0.18846111095081772	-0.6409541051035953	1.164016719023789	0.11251853955513622	0.20576645319897635	1.0851626110739154	0.09666856283483691	-0.1783758309358529	1.0992797993252612	0.0822264054387465	-0.5747141610552315	1.0522178458692162	0.1390938759711095	-0.5744313268098588	0.8926551675201503	0.05875072909538196	-0.5852920223975793	0.9380968800890777	0.06965730129162243	-0.6228203726723822	1.0983009915371866	0.21830903753560765	0.7076647946694026	0.8838874551063769	0.25595325622704823	0.9516658203349257	0.7542998706168327	0.2730155172423201	0.832320749933719	0.7327163081336916	0.3759738802432925	0.6780464410515454	0.9050440021402177	0.38282419588360606	0.422910619872388	1.004900448682774	0.35956998753010716	0.20146093192383013	0.9847881883455082	0.2841582910421355	0.11200102792560745	0.9541097783501991	0.27729766004140494	0.09131171241331637	0.964481867244497	0.2934551436415316	0.06446462923252128	1.0116531832116213	0.08044631103931539	0.6286583087229892	0.852357382345673	0.08404212119626697	0.3749277440654308	0.9028043349808295	0.20224846085857368	0.18498079481497282	0.9403152714030147	0.29110338539746183	0.1417011649364927	0.9585213612093748	0.2918180780354935	0.10921350253772977	0.9624033782607357	0.2663730455022707	0.0738356916447685	0.9785762767392054	
